<?xml version="1.0" encoding="UTF-8" standalone="no"?>
<!DOCTYPE svg PUBLIC "-//W3C//DTD SVG 1.1//EN" "http://www.w3.org/Graphics/SVG/1.1/DTD/svg11.dtd">
<svg width="1000px" height="200px" version="1.1" xmlns="http://www.w3.org/2000/svg" xmlns:xlink="http://www.w3.org/1999/xlink" xml:space="preserve" xmlns:serif="http://www.serif.com/" style="fill-rule:evenodd;clip-rule:evenodd;stroke-linecap:round;stroke-linejoin:round;stroke-miterlimit:1.5;">
    <g id="Edges">
        <path d="M32.063,22.791C32.063,22.791 71.258,33.992 93.835,72.539" style="fill:none;stroke:rgb(182,188,255);stroke-width:2.03px;"/>
        <g transform="matrix(0.0595616,-0.998225,0.998225,0.0595616,552.496,250.072)">
            <path d="M32.063,22.791C32.063,22.791 71.258,33.992 93.835,72.539" style="fill:none;stroke:rgb(182,188,255);stroke-width:2.03px;"/>
        </g>
        <g transform="matrix(-1.3812,3.60041,-4.7767,-1.83246,860.27,-11.6698)">
            <path d="M32.063,22.791C32.063,22.791 71.258,33.992 93.835,72.539" style="fill:none;stroke:rgb(182,188,255);stroke-width:0.45px;"/>
        </g>
        <g transform="matrix(1.46275,0.446372,-0.543171,1.77996,798.332,-77.8208)">
            <path d="M32.063,22.791C32.063,22.791 71.258,33.992 93.835,72.539" style="fill:none;stroke:rgb(182,188,255);stroke-width:1.19px;"/>
        </g>
        <g transform="matrix(0.224716,-2.0098,1.91007,0.213565,331.581,242.265)">
            <path d="M32.063,22.791C32.063,22.791 71.258,33.992 93.835,72.539" style="fill:none;stroke:rgb(182,188,255);stroke-width:1.03px;"/>
        </g>
        <g transform="matrix(-1,-1.22465e-16,1.22465e-16,-1,1080.88,124.837)">
            <path d="M32.063,22.791C32.063,22.791 71.258,33.992 93.835,72.539" style="fill:none;stroke:rgb(182,188,255);stroke-width:2.03px;"/>
        </g>
        <g transform="matrix(0.355819,0.934555,-0.934555,0.355819,545.333,-51.1416)">
            <path d="M32.063,22.791C32.063,22.791 71.258,33.992 93.835,72.539" style="fill:none;stroke:rgb(182,188,255);stroke-width:2.03px;"/>
        </g>
        <g transform="matrix(0.70179,0.712384,-0.712384,0.70179,632.252,121.721)">
            <path d="M32.063,22.791C32.063,22.791 71.258,33.992 93.835,72.539" style="fill:none;stroke:rgb(182,188,255);stroke-width:2.03px;"/>
        </g>
        <g transform="matrix(1.27302,0.032234,-0.0375287,1.48212,602.38,-61.5339)">
            <path d="M32.063,22.791C32.063,22.791 71.258,33.992 93.835,72.539" style="fill:none;stroke:rgb(182,188,255);stroke-width:1.47px;"/>
        </g>
        <g transform="matrix(-0.634214,1.15319,-0.980223,-0.539089,1033.78,33.4026)">
            <path d="M32.063,22.791C32.063,22.791 71.258,33.992 93.835,72.539" style="fill:none;stroke:rgb(182,188,255);stroke-width:1.66px;"/>
        </g>
        <g transform="matrix(-0.410781,1.63562,-1.27947,-0.321336,936.743,60.8039)">
            <path d="M32.063,22.791C32.063,22.791 71.258,33.992 93.835,72.539" style="fill:none;stroke:rgb(182,188,255);stroke-width:1.34px;"/>
        </g>
        <g transform="matrix(-1.79115,-0.987427,0.694544,-1.25987,837.101,248.286)">
            <path d="M32.063,22.791C32.063,22.791 71.258,33.992 93.835,72.539" style="fill:none;stroke:rgb(182,188,255);stroke-width:1.15px;"/>
        </g>
        <g transform="matrix(0.634214,-1.15319,0.980223,0.539089,856.47,120.303)">
            <path d="M32.063,22.791C32.063,22.791 71.258,33.992 93.835,72.539" style="fill:none;stroke:rgb(182,188,255);stroke-width:1.66px;"/>
        </g>
        <g transform="matrix(1.29364,0.889648,-0.776916,1.12971,877.31,49.6485)">
            <path d="M32.063,22.791C32.063,22.791 71.258,33.992 93.835,72.539" style="fill:none;stroke:rgb(182,188,255);stroke-width:1.38px;"/>
        </g>
        <g transform="matrix(-0.160858,1.64379,-1.24685,-0.122015,748.063,18.0261)">
            <path d="M32.063,22.791C32.063,22.791 71.258,33.992 93.835,72.539" style="fill:none;stroke:rgb(182,188,255);stroke-width:1.39px;"/>
        </g>
        <g transform="matrix(-0.11423,-1.55928,1.74132,-0.127566,595.125,213.962)">
            <path d="M32.063,22.791C32.063,22.791 71.258,33.992 93.835,72.539" style="fill:none;stroke:rgb(182,188,255);stroke-width:1.23px;"/>
        </g>
        <g transform="matrix(1.99455,0,0,1.66996,812.928,-63.5719)">
            <path d="M32.063,22.791C32.063,22.791 71.258,33.992 93.835,72.539" style="fill:none;stroke:rgb(182,188,255);stroke-width:1.1px;"/>
        </g>
        <g transform="matrix(1.25547,2.06776,-1.41144,0.85697,365.585,-68.8563)">
            <path d="M32.063,22.791C32.063,22.791 71.258,33.992 93.835,72.539" style="fill:none;stroke:rgb(182,188,255);stroke-width:0.98px;"/>
        </g>
        <g transform="matrix(0.0541787,1.79313,-2.47934,0.0749124,559.516,18.0242)">
            <path d="M32.063,22.791C32.063,22.791 71.258,33.992 93.835,72.539" style="fill:none;stroke:rgb(182,188,255);stroke-width:0.94px;"/>
        </g>
        <g transform="matrix(2.58752,0,0,0.747405,647.094,36.561)">
            <path d="M32.063,22.791C32.063,22.791 71.258,33.992 93.835,72.539" style="fill:none;stroke:rgb(182,188,255);stroke-width:1.07px;"/>
        </g>
        <g transform="matrix(1.93813,0,0,1.86841,450.253,20.6367)">
            <path d="M32.063,22.791C32.063,22.791 71.258,33.992 93.835,72.539" style="fill:none;stroke:rgb(182,188,255);stroke-width:1.07px;"/>
        </g>
        <g transform="matrix(-1.93813,-2.37353e-16,2.28814e-16,-1.86841,687.318,206.555)">
            <path d="M32.063,22.791C32.063,22.791 71.258,33.992 93.835,72.539" style="fill:none;stroke:rgb(182,188,255);stroke-width:1.07px;"/>
        </g>
        <g transform="matrix(2.38757,0,0,1.62025,19.9523,-64.5912)">
            <path d="M32.063,22.791C32.063,22.791 71.258,33.992 93.835,72.539" style="fill:none;stroke:rgb(182,188,255);stroke-width:1px;"/>
        </g>
        <g transform="matrix(-3.61605,0.822548,-0.695725,-3.05852,495.515,238.336)">
            <path d="M32.063,22.791C32.063,22.791 71.258,33.992 93.835,72.539" style="fill:none;stroke:rgb(182,188,255);stroke-width:0.59px;"/>
        </g>
        <g transform="matrix(0.30913,-0.95102,0.95102,0.30913,270.053,261.823)">
            <path d="M32.063,22.791C32.063,22.791 71.258,33.992 93.835,72.539" style="fill:none;stroke:rgb(182,188,255);stroke-width:2.03px;"/>
        </g>
        <g transform="matrix(2.02263,0,0,2.5152,184.965,-2.32619)">
            <path d="M32.063,22.791C32.063,22.791 71.258,33.992 93.835,72.539" style="fill:none;stroke:rgb(182,188,255);stroke-width:0.89px;"/>
        </g>
        <g transform="matrix(-2.02263,-2.477e-16,3.08023e-16,-2.5152,434.414,244.549)">
            <path d="M32.063,22.791C32.063,22.791 71.258,33.992 93.835,72.539" style="fill:none;stroke:rgb(182,188,255);stroke-width:0.89px;"/>
        </g>
        <g transform="matrix(2.1287,0,0,1.31821,-77.896,78.9792)">
            <path d="M32.063,22.791C32.063,22.791 71.258,33.992 93.835,72.539" style="fill:none;stroke:rgb(182,188,255);stroke-width:1.15px;"/>
        </g>
        <g transform="matrix(2.10229,0,0,1.10559,307.232,-20.3664)">
            <path d="M32.063,22.791C32.063,22.791 71.258,33.992 93.835,72.539" style="fill:none;stroke:rgb(182,188,255);stroke-width:1.21px;"/>
        </g>
        <g transform="matrix(-0.612177,2.03435,-1.68122,-0.505911,160.207,41.6965)">
            <path d="M32.063,22.791C32.063,22.791 71.258,33.992 93.835,72.539" style="fill:none;stroke:rgb(182,188,255);stroke-width:1.04px;"/>
        </g>
        <g transform="matrix(0.775287,0.631609,-0.631609,0.775287,218.696,-61.6977)">
            <path d="M32.063,22.791C32.063,22.791 71.258,33.992 93.835,72.539" style="fill:none;stroke:rgb(182,188,255);stroke-width:2.03px;"/>
        </g>
        <g transform="matrix(-0.239814,0.970819,0.970819,0.239814,-34.2594,-83.2572)">
            <path d="M32.063,22.791C32.063,22.791 71.258,33.992 93.835,72.539" style="fill:none;stroke:rgb(182,188,255);stroke-width:2.03px;"/>
        </g>
        <g transform="matrix(0.842288,0.539028,-0.539028,0.842288,92.5381,54.3589)">
            <path d="M32.063,22.791C32.063,22.791 71.258,33.992 93.835,72.539" style="fill:none;stroke:rgb(182,188,255);stroke-width:2.03px;"/>
        </g>
        <g transform="matrix(-1.15583,-1.41548e-16,1.44664e-16,-1.18127,125.433,115.614)">
            <path d="M32.063,22.791C32.063,22.791 71.258,33.992 93.835,72.539" style="fill:none;stroke:rgb(182,188,255);stroke-width:1.74px;"/>
        </g>
        <g transform="matrix(0.81208,-1.20188,1.46126,0.987334,47.5376,94.7885)">
            <path d="M32.063,22.791C32.063,22.791 71.258,33.992 93.835,72.539" style="fill:none;stroke:rgb(182,188,255);stroke-width:1.26px;"/>
        </g>
        <g transform="matrix(-0.832412,1.23197,-1.52456,-1.0301,299.281,53.0528)">
            <path d="M32.063,22.791C32.063,22.791 71.258,33.992 93.835,72.539" style="fill:none;stroke:rgb(182,188,255);stroke-width:1.21px;"/>
        </g>
        <g transform="matrix(-1.79408,3.55192,-2.34989,-1.18693,474.166,-71.7152)">
            <path d="M32.063,22.791C32.063,22.791 71.258,33.992 93.835,72.539" style="fill:none;stroke:rgb(182,188,255);stroke-width:0.6px;"/>
        </g>
    </g>
    <g id="Nodes">
        <g transform="matrix(1,0,0,1,535.584,75.8959)">
            <circle cx="98.016" cy="86.881" r="15.43" style="fill:url(#_Radial1);"/>
        </g>
        <g transform="matrix(1,0,0,1,622.944,-29.6491)">
            <circle cx="98.016" cy="86.881" r="15.43" style="fill:url(#_Radial2);"/>
        </g>
        <g transform="matrix(1,0,0,1,622.944,-29.6491)">
            <circle cx="98.016" cy="86.881" r="15.43" style="fill:url(#_Radial3);"/>
        </g>
        <g transform="matrix(1,0,0,1,277.431,102.15)">
            <circle cx="98.016" cy="86.881" r="15.43" style="fill:url(#_Radial4);"/>
        </g>
        <g transform="matrix(1,0,0,1,266.926,-79.1647)">
            <circle cx="98.016" cy="86.881" r="15.43" style="fill:url(#_Radial5);"/>
        </g>
        <g transform="matrix(1,0,0,1,144.602,-28.8962)">
            <circle cx="98.016" cy="86.881" r="15.43" style="fill:url(#_Radial6);"/>
        </g>
        <g transform="matrix(1,0,0,1,-0.854691,0.334375)">
            <circle cx="98.016" cy="86.881" r="15.43" style="fill:url(#_Radial7);"/>
        </g>
        <g transform="matrix(1,0,0,1,407.219,-20.2969)">
            <circle cx="98.016" cy="86.881" r="15.43" style="fill:url(#_Radial8);"/>
        </g>
        <g transform="matrix(1,0,0,1,25.7721,81.931)">
            <circle cx="98.016" cy="86.881" r="15.43" style="fill:url(#_Radial9);"/>
        </g>
        <g transform="matrix(1,0,0,1,-82.7876,-63.7183)">
            <circle cx="98.016" cy="86.881" r="15.43" style="fill:url(#_Radial10);"/>
        </g>
        <g transform="matrix(1,0,0,1,893.646,-33.0889)">
            <circle cx="98.016" cy="86.881" r="15.43" style="fill:url(#_Radial11);"/>
        </g>
        <g transform="matrix(1,0,0,1,622.391,-30.1322)">
            <circle cx="98.016" cy="86.881" r="15.43" style="fill:url(#_Radial12);"/>
        </g>
        <g transform="matrix(1,0,0,1,796.87,11.6876)">
            <circle cx="98.016" cy="86.881" r="15.43" style="fill:url(#_Radial13);"/>
        </g>
        <g transform="matrix(1,0,0,1,696.536,99.3546)">
            <circle cx="98.016" cy="86.881" r="15.43" style="fill:url(#_Radial14);"/>
        </g>
    </g>
    <g transform="matrix(0.924635,0,0,0.889406,-3.51953,10.1089)">
        <g transform="matrix(0.866629,0,0,1,0.380704,0)">
            <text x="2.854px" y="199.687px" style="font-family:'Helvetica';font-size:275.54px;fill:url(#_Linear15);stroke:rgb(183,189,255);stroke-width:2.46px;stroke-linecap:butt;stroke-miterlimit:2;">SM-SPSA</text>
        </g>
    </g>
    <defs>
        <radialGradient id="_Radial1" cx="0" cy="0" r="1" gradientUnits="userSpaceOnUse" gradientTransform="matrix(2.0906e-15,34.142,-34.142,2.0906e-15,97.9121,88.087)"><stop offset="0" style="stop-color:rgb(183,189,255);stop-opacity:1"/><stop offset="1" style="stop-color:rgb(136,143,248);stop-opacity:1"/></radialGradient>
        <radialGradient id="_Radial2" cx="0" cy="0" r="1" gradientUnits="userSpaceOnUse" gradientTransform="matrix(2.0906e-15,34.142,-34.142,2.0906e-15,97.9121,88.087)"><stop offset="0" style="stop-color:rgb(183,189,255);stop-opacity:1"/><stop offset="1" style="stop-color:rgb(136,143,248);stop-opacity:1"/></radialGradient>
        <radialGradient id="_Radial3" cx="0" cy="0" r="1" gradientUnits="userSpaceOnUse" gradientTransform="matrix(2.0906e-15,34.142,-34.142,2.0906e-15,97.9121,88.087)"><stop offset="0" style="stop-color:rgb(183,189,255);stop-opacity:1"/><stop offset="1" style="stop-color:rgb(136,143,248);stop-opacity:1"/></radialGradient>
        <radialGradient id="_Radial4" cx="0" cy="0" r="1" gradientUnits="userSpaceOnUse" gradientTransform="matrix(2.0906e-15,34.142,-34.142,2.0906e-15,97.9121,88.087)"><stop offset="0" style="stop-color:rgb(183,189,255);stop-opacity:1"/><stop offset="1" style="stop-color:rgb(136,143,248);stop-opacity:1"/></radialGradient>
        <radialGradient id="_Radial5" cx="0" cy="0" r="1" gradientUnits="userSpaceOnUse" gradientTransform="matrix(2.0906e-15,34.142,-34.142,2.0906e-15,97.9121,88.087)"><stop offset="0" style="stop-color:rgb(183,189,255);stop-opacity:1"/><stop offset="1" style="stop-color:rgb(136,143,248);stop-opacity:1"/></radialGradient>
        <radialGradient id="_Radial6" cx="0" cy="0" r="1" gradientUnits="userSpaceOnUse" gradientTransform="matrix(2.0906e-15,34.142,-34.142,2.0906e-15,97.9121,88.087)"><stop offset="0" style="stop-color:rgb(183,189,255);stop-opacity:1"/><stop offset="1" style="stop-color:rgb(136,143,248);stop-opacity:1"/></radialGradient>
        <radialGradient id="_Radial7" cx="0" cy="0" r="1" gradientUnits="userSpaceOnUse" gradientTransform="matrix(2.0906e-15,34.142,-34.142,2.0906e-15,97.9121,88.087)"><stop offset="0" style="stop-color:rgb(183,189,255);stop-opacity:1"/><stop offset="1" style="stop-color:rgb(136,143,248);stop-opacity:1"/></radialGradient>
        <radialGradient id="_Radial8" cx="0" cy="0" r="1" gradientUnits="userSpaceOnUse" gradientTransform="matrix(2.0906e-15,34.142,-34.142,2.0906e-15,97.9121,88.087)"><stop offset="0" style="stop-color:rgb(183,189,255);stop-opacity:1"/><stop offset="1" style="stop-color:rgb(136,143,248);stop-opacity:1"/></radialGradient>
        <radialGradient id="_Radial9" cx="0" cy="0" r="1" gradientUnits="userSpaceOnUse" gradientTransform="matrix(2.0906e-15,34.142,-34.142,2.0906e-15,97.9121,88.087)"><stop offset="0" style="stop-color:rgb(183,189,255);stop-opacity:1"/><stop offset="1" style="stop-color:rgb(136,143,248);stop-opacity:1"/></radialGradient>
        <radialGradient id="_Radial10" cx="0" cy="0" r="1" gradientUnits="userSpaceOnUse" gradientTransform="matrix(2.0906e-15,34.142,-34.142,2.0906e-15,97.9121,88.087)"><stop offset="0" style="stop-color:rgb(183,189,255);stop-opacity:1"/><stop offset="1" style="stop-color:rgb(136,143,248);stop-opacity:1"/></radialGradient>
        <radialGradient id="_Radial11" cx="0" cy="0" r="1" gradientUnits="userSpaceOnUse" gradientTransform="matrix(2.0906e-15,34.142,-34.142,2.0906e-15,97.9121,88.087)"><stop offset="0" style="stop-color:rgb(183,189,255);stop-opacity:1"/><stop offset="1" style="stop-color:rgb(136,143,248);stop-opacity:1"/></radialGradient>
        <radialGradient id="_Radial12" cx="0" cy="0" r="1" gradientUnits="userSpaceOnUse" gradientTransform="matrix(2.0906e-15,34.142,-34.142,2.0906e-15,97.9121,88.087)"><stop offset="0" style="stop-color:rgb(183,189,255);stop-opacity:1"/><stop offset="1" style="stop-color:rgb(136,143,248);stop-opacity:1"/></radialGradient>
        <radialGradient id="_Radial13" cx="0" cy="0" r="1" gradientUnits="userSpaceOnUse" gradientTransform="matrix(2.0906e-15,34.142,-34.142,2.0906e-15,97.9121,88.087)"><stop offset="0" style="stop-color:rgb(183,189,255);stop-opacity:1"/><stop offset="1" style="stop-color:rgb(136,143,248);stop-opacity:1"/></radialGradient>
        <radialGradient id="_Radial14" cx="0" cy="0" r="1" gradientUnits="userSpaceOnUse" gradientTransform="matrix(2.0906e-15,34.142,-34.142,2.0906e-15,97.9121,88.087)"><stop offset="0" style="stop-color:rgb(183,189,255);stop-opacity:1"/><stop offset="1" style="stop-color:rgb(136,143,248);stop-opacity:1"/></radialGradient>
        <linearGradient id="_Linear15" x1="0" y1="0" x2="1" y2="0" gradientUnits="userSpaceOnUse" gradientTransform="matrix(2.75673e-14,389.302,-452.047,2.39352e-14,651.611,46.4274)"><stop offset="0" style="stop-color:rgb(22,35,183);stop-opacity:1"/><stop offset="1" style="stop-color:rgb(0,6,69);stop-opacity:1"/></linearGradient>
    </defs>
</svg>
